<svg width="600" height="420" viewBox="0 0 600 420" fill="none" xmlns="http://www.w3.org/2000/svg">
  <rect width="600" height="420" fill="#0B0B0B"/>
  <rect x="36" y="36" width="528" height="348" rx="8" fill="#20140C" stroke="#C8A24A" stroke-width="3"/>
  <ellipse cx="300" cy="305" rx="176" ry="50" fill="#6B3F1D"/>
  <path d="M152 298C200 250 400 250 448 298C398 345 202 345 152 298Z" fill="#C8A24A"/>
  <path d="M213 293C254 276 346 276 387 293" stroke="#0B0B0B" stroke-width="14" stroke-linecap="round"/>
  <path d="M222 255C193 219 194 184 224 148C253 113 250 79 220 48" stroke="#F7EFE2" stroke-width="10" stroke-linecap="round" opacity="0.58"/>
  <path d="M300 256C265 211 267 167 303 124C339 81 336 48 303 20" stroke="#F7EFE2" stroke-width="12" stroke-linecap="round" opacity="0.78"/>
  <path d="M378 255C349 219 350 184 380 148C409 113 406 79 376 48" stroke="#F7EFE2" stroke-width="10" stroke-linecap="round" opacity="0.58"/>
  <path d="M97 93H171M429 93H503" stroke="#C8A24A" stroke-width="5" stroke-linecap="round"/>
</svg>
