<svg width="600" height="420" viewBox="0 0 600 420" fill="none" xmlns="http://www.w3.org/2000/svg">
  <defs>
    <radialGradient id="bg" cx="50%" cy="35%" r="70%">
      <stop offset="0" stop-color="#2d190f"/>
      <stop offset="1" stop-color="#070505"/>
    </radialGradient>
    <linearGradient id="gold" x1="120" y1="60" x2="510" y2="350">
      <stop stop-color="#ffe08a"/>
      <stop offset=".45" stop-color="#c99a33"/>
      <stop offset="1" stop-color="#6d3f13"/>
    </linearGradient>
    <linearGradient id="wood" x1="126" y1="277" x2="472" y2="186">
      <stop stop-color="#4a230d"/>
      <stop offset=".48" stop-color="#8a4d1d"/>
      <stop offset="1" stop-color="#2a1208"/>
    </linearGradient>
    <filter id="shadow" x="-20%" y="-20%" width="140%" height="150%">
      <feDropShadow dx="0" dy="20" stdDeviation="16" flood-color="#000" flood-opacity=".48"/>
    </filter>
  </defs>
  <rect width="600" height="420" fill="url(#bg)"/>
  <rect x="34" y="34" width="532" height="352" rx="18" fill="#120b08" stroke="#c8a24a" stroke-width="2.5"/>
  <ellipse cx="300" cy="318" rx="196" ry="34" fill="#020101" opacity=".58"/>
  <g filter="url(#shadow)">
    <path d="M132 286c88-82 196-112 345-70-60 88-188 132-345 70Z" fill="url(#wood)"/>
    <path d="M157 273c74-36 162-56 284-44" stroke="#d8ac45" stroke-width="14" stroke-linecap="round"/>
    <path d="M196 308c68-23 148-35 244-33" stroke="#1d0c05" stroke-width="11" stroke-linecap="round" opacity=".7"/>
    <path d="M218 244c50 18 99 24 153 18" stroke="#b8792c" stroke-width="7" stroke-linecap="round" opacity=".65"/>
  </g>
  <path d="M303 55l13 43h45l-36 27 14 44-36-27-36 27 14-44-36-27h45l13-43Z" fill="url(#gold)"/>
  <path d="M451 72c-29 39-28 73 2 112 30 40 28 78-9 117" stroke="#f6efe2" stroke-width="9" stroke-linecap="round" opacity=".52"/>
  <path d="M500 92c-23 32-22 61 2 93 25 33 23 64-7 96" stroke="#c8a24a" stroke-width="6" stroke-linecap="round" opacity=".34"/>
</svg>
