<svg width="600" height="420" viewBox="0 0 600 420" fill="none" xmlns="http://www.w3.org/2000/svg">
  <defs>
    <radialGradient id="bg" cx="50%" cy="34%" r="74%">
      <stop offset="0" stop-color="#2b1a10"/>
      <stop offset="1" stop-color="#070505"/>
    </radialGradient>
    <linearGradient id="wood" x1="129" y1="281" x2="488" y2="168">
      <stop stop-color="#2a1005"/>
      <stop offset=".42" stop-color="#9a5720"/>
      <stop offset="1" stop-color="#3a1708"/>
    </linearGradient>
  </defs>
  <rect width="600" height="420" fill="url(#bg)"/>
  <rect x="34" y="34" width="532" height="352" rx="18" fill="#120b08" stroke="#c8a24a" stroke-width="2.5"/>
  <ellipse cx="300" cy="320" rx="192" ry="34" fill="#000" opacity=".58"/>
  <g stroke-linecap="round" stroke-linejoin="round">
    <path d="M137 286c91-62 194-97 326-105-96 80-202 121-326 105Z" fill="url(#wood)" stroke="#b78334" stroke-width="4"/>
    <path d="M174 267c78-40 161-64 249-74" stroke="#d4a34a" stroke-width="10" opacity=".88"/>
    <path d="M198 303c76-31 160-51 251-59" stroke="#130603" stroke-width="10" opacity=".6"/>
    <path d="M168 238c59-36 124-58 196-67" stroke="#7d3f17" stroke-width="9" opacity=".82"/>
  </g>
  <path d="M111 316h378" stroke="#c8a24a" stroke-width="5" stroke-linecap="round" opacity=".5"/>
  <path d="M459 70c-26 36-26 68 0 103 27 36 24 70-9 104" stroke="#f6efe2" stroke-width="9" stroke-linecap="round" opacity=".5"/>
  <path d="M497 112c-19 27-18 51 2 78 20 28 18 53-7 79" stroke="#c8a24a" stroke-width="6" stroke-linecap="round" opacity=".34"/>
</svg>
