<svg width="600" height="420" viewBox="0 0 600 420" fill="none" xmlns="http://www.w3.org/2000/svg">
  <defs>
    <radialGradient id="bg" cx="50%" cy="30%" r="78%">
      <stop offset="0" stop-color="#2d190f"/>
      <stop offset="1" stop-color="#070505"/>
    </radialGradient>
    <linearGradient id="bottle" x1="235" y1="122" x2="365" y2="338">
      <stop stop-color="#fff1b8"/>
      <stop offset=".45" stop-color="#cf9c31"/>
      <stop offset="1" stop-color="#4b260c"/>
    </linearGradient>
  </defs>
  <rect width="600" height="420" fill="url(#bg)"/>
  <rect x="34" y="34" width="532" height="352" rx="18" fill="#120b08" stroke="#c8a24a" stroke-width="2.5"/>
  <ellipse cx="300" cy="333" rx="150" ry="30" fill="#000" opacity=".56"/>
  <rect x="263" y="88" width="74" height="44" rx="8" fill="#d9ab49"/>
  <rect x="249" y="126" width="102" height="188" rx="22" fill="url(#bottle)" stroke="#f4d071" stroke-width="5"/>
  <rect x="272" y="150" width="56" height="108" rx="14" fill="#160b07" opacity=".82"/>
  <path d="M300 164l11 34h36l-29 21 11 35-29-22-29 22 11-35-29-21h36l11-34Z" fill="#d8aa48"/>
  <path d="M241 315h118" stroke="#eac060" stroke-width="11" stroke-linecap="round"/>
  <path d="M410 92c-28 37-25 70 4 105 25 30 22 60-8 91" stroke="#f6efe2" stroke-width="8" stroke-linecap="round" opacity=".48"/>
  <path d="M202 118c25 28 25 55 0 83" stroke="#c8a24a" stroke-width="6" stroke-linecap="round" opacity=".34"/>
</svg>
