<svg width="1600" height="900" viewBox="0 0 1600 900" fill="none" xmlns="http://www.w3.org/2000/svg">
  <rect width="1600" height="900" fill="#0B0B0B"/>
  <path d="M0 0H1600V900H0V0Z" fill="url(#bg)"/>
  <g opacity="0.28">
    <path d="M120 120H360V360H120V120Z" stroke="#C8A24A" stroke-width="2"/>
    <path d="M1240 520H1480V760H1240V520Z" stroke="#C8A24A" stroke-width="2"/>
    <path d="M1070 92H1306V328H1070V92Z" stroke="#6B3F1D" stroke-width="2"/>
    <path d="M238 120L360 238L242 360L120 242L238 120Z" stroke="#C8A24A" stroke-width="2"/>
    <path d="M1360 520L1480 638L1362 760L1240 642L1360 520Z" stroke="#C8A24A" stroke-width="2"/>
    <circle cx="240" cy="240" r="72" stroke="#F7EFE2" stroke-width="2"/>
    <circle cx="1360" cy="640" r="72" stroke="#F7EFE2" stroke-width="2"/>
  </g>
  <g transform="translate(1050 300)" opacity="0.86">
    <path d="M128 48C128 25 147 6 170 6C193 6 212 25 212 48V92H128V48Z" fill="#C8A24A"/>
    <path d="M95 92H245L276 392C279 423 255 450 224 450H116C85 450 61 423 64 392L95 92Z" fill="#111111" stroke="#C8A24A" stroke-width="8"/>
    <path d="M118 142H222L239 310C242 341 218 368 187 368H153C122 368 98 341 101 310L118 142Z" fill="#7A1F1F" opacity="0.78"/>
    <path d="M170 186L187 237H241L197 268L214 320L170 288L126 320L143 268L99 237H153L170 186Z" fill="#C8A24A"/>
    <path d="M312 38C254 102 255 166 312 229C369 292 360 362 300 430" stroke="#F7EFE2" stroke-width="13" stroke-linecap="round" opacity="0.74"/>
    <path d="M46 88C91 139 91 190 46 241C-1 294 5 356 58 418" stroke="#F7EFE2" stroke-width="11" stroke-linecap="round" opacity="0.54"/>
  </g>
  <g transform="translate(820 650)" opacity="0.72">
    <ellipse cx="160" cy="48" rx="160" ry="44" fill="#6B3F1D"/>
    <path d="M55 47C95 18 229 18 270 47C227 79 97 79 55 47Z" fill="#C8A24A"/>
    <path d="M94 44C130 31 193 31 228 44" stroke="#0B0B0B" stroke-width="9" stroke-linecap="round"/>
  </g>
  <defs>
    <radialGradient id="bg" cx="0" cy="0" r="1" gradientUnits="userSpaceOnUse" gradientTransform="translate(1175 358) rotate(151) scale(856 695)">
      <stop stop-color="#6B3F1D"/>
      <stop offset="0.42" stop-color="#1C130D"/>
      <stop offset="1" stop-color="#0B0B0B"/>
    </radialGradient>
  </defs>
</svg>
